<svg xmlns="http://www.w3.org/2000/svg" viewBox="0 0 512 512">
    <g>

        <defs>
            <style>.cls-1{fill:#103336;}.cls-2{fill:#4bbfab;}.cls-3{fill:#ffe273;}.cls-4{fill:#f16c67;}</style>
        </defs>
        <g transform="translate(0,269.73687744140625) scale(8.068473815917969,7.32160758972168) translate(0,-269.73687744140625) " stroke="null" id="svg_16">
            <g stroke="null" transform="matrix(3.7608359255127386,0,0,3.4127104436539915,0,-1705.1706916614203) " id="svg_5">
                <g stroke="null" id="svg_6">
                    <path stroke="null" id="svg_8" d="m136.65,544.50182l-5.65,-15.46l-5.68,15.46l11.33,0zm2.41,6.77l-16.31,0l-3.62,9.85l-8.22,0l16.25,-42.29l7.49,0l16.35,42.29l-8.27,0l-3.67,-9.85z" class="cls-1"/>
                    <rect stroke="null" id="svg_9" height="43.49" width="7.37" y="517.62182" x="153.86" class="cls-1"/>
                    <path stroke="null" id="svg_10" d="m185.09,548.25182l0,-0.48l-6.83,0c-3.14,0 -5.25,1.75 -5.25,4.41c0,2.35 1.93,3.92 4.71,3.92c4.65,0 7.37,-3.26 7.37,-7.85m7.31,-6.71l0,19.58l-7.31,0l0,-4.51c-1.27,3 -4.77,5 -9.12,5c-6,0 -10.15,-3.87 -10.15,-9.12c0,-5.92 4.59,-9.61 11.42,-9.61l5.62,0a2,2 0 0 0 2.23,-2.05c0,-3 -2.29,-5.08 -6.22,-5.08s-6.28,2.48 -6.4,5.2l-6.65,0c0.36,-6 5.5,-10.75 13.41,-10.75c7.73,0 13.17,4.47 13.17,11.35" class="cls-1"/>
                    <path stroke="null" id="svg_11" d="m242.18,548.25182l0,-0.48l-6.83,0c-3.14,0 -5.26,1.75 -5.26,4.41c0,2.35 1.94,3.92 4.72,3.92c4.65,0 7.37,-3.26 7.37,-7.85m7.31,-6.71l0,19.58l-7.31,0l0,-4.51c-1.27,3 -4.78,5 -9.13,5c-6,0 -10.14,-3.87 -10.14,-9.12c0,-5.92 4.59,-9.61 11.41,-9.61l5.62,0a2,2 0 0 0 2.24,-2.05c0,-3 -2.3,-5.08 -6.23,-5.08s-6.28,2.48 -6.4,5.2l-6.64,0c0.36,-6 5.49,-10.75 13.41,-10.75c7.73,0 13.17,4.47 13.17,11.35" class="cls-1"/>
                    <path stroke="null" id="svg_12" d="m215.17,530.67182l-7,21.17l-7.37,-21.17l-7.55,0l10.75,28.81a12.86,12.86 0 0 1 0.82,4.51a3.73,3.73 0 0 1 -3.73,3.74l-8.69,0l0,5.93l10.08,0a9,9 0 0 0 9,-9l0,-0.84a12.77,12.77 0 0 1 0.75,-4.33l10.25,-28.83l-7.31,0.01z" class="cls-1"/>
                    <path stroke="null" id="svg_13" d="m0,517.61182l19.6,0a24.94,24.94 0 0 1 24.94,24.94l-19.6,0a25,25 0 0 1 -24.94,-24.94" class="cls-2"/>
                    <path stroke="null" id="svg_14" d="m64.35,578.69182l0,0a17.54,17.54 0 0 0 17.55,-17.55l-17.55,0l0,17.55z" class="cls-3"/>
                    <path stroke="null" id="svg_15" d="m67.49,527.53182a3.66,3.66 0 0 1 -3.49,-2.7a9.91,9.91 0 0 0 -19.45,2.7l0,13.79a19.83,19.83 0 0 0 19.8,19.83l0,-26.93a3.64,3.64 0 0 1 3.65,-3.61l13.9,0l0,-3.08l-14.41,0z" class="cls-4"/>
                </g>
            </g>
        </g>
        <defs>
            <style>.cls-1{fill:#103336;}.cls-2{fill:#4bbfab;}.cls-3{fill:#ffe273;}.cls-4{fill:#f16c67;}</style>
        </defs>
        <g stroke="null" id="svg_32">
            <g stroke="null" transform="matrix(5.167706094898396,0,0,5.167706094898396,-1863.2250206746207,-2919.333282082035) " id="svg_21">
                <g stroke="null" id="svg_22">
                    <path stroke="null" id="svg_24" d="m502.20475,613.49973l-5.65,-15.46l-5.68,15.46l11.33,0zm2.41,6.77l-16.31,0l-3.62,9.85l-8.22,0l16.25,-42.29l7.49,0l16.35,42.29l-8.27,0l-3.67,-9.85z" class="cls-1"/>
                    <rect stroke="null" id="svg_25" height="43.49" width="7.37" y="586.61973" x="519.41475" class="cls-1"/>
                    <path stroke="null" id="svg_26" d="m550.64475,617.24973l0,-0.48l-6.83,0c-3.14,0 -5.25,1.75 -5.25,4.41c0,2.35 1.93,3.92 4.71,3.92c4.65,0 7.37,-3.26 7.37,-7.85m7.31,-6.71l0,19.58l-7.31,0l0,-4.51c-1.27,3 -4.77,5 -9.12,5c-6,0 -10.15,-3.87 -10.15,-9.12c0,-5.92 4.59,-9.61 11.42,-9.61l5.62,0a2,2 0 0 0 2.23,-2.05c0,-3 -2.29,-5.08 -6.22,-5.08s-6.28,2.48 -6.4,5.2l-6.65,0c0.36,-6 5.5,-10.75 13.41,-10.75c7.73,0 13.17,4.47 13.17,11.35" class="cls-1"/>
                    <path stroke="null" id="svg_27" d="m607.73475,617.24973l0,-0.48l-6.83,0c-3.14,0 -5.26,1.75 -5.26,4.41c0,2.35 1.94,3.92 4.72,3.92c4.65,0 7.37,-3.26 7.37,-7.85m7.31,-6.71l0,19.58l-7.31,0l0,-4.51c-1.27,3 -4.78,5 -9.13,5c-6,0 -10.14,-3.87 -10.14,-9.12c0,-5.92 4.59,-9.61 11.41,-9.61l5.62,0a2,2 0 0 0 2.24,-2.05c0,-3 -2.3,-5.08 -6.23,-5.08s-6.28,2.48 -6.4,5.2l-6.64,0c0.36,-6 5.49,-10.75 13.41,-10.75c7.73,0 13.17,4.47 13.17,11.35" class="cls-1"/>
                    <path stroke="null" id="svg_28" d="m580.72475,599.66973l-7,21.17l-7.37,-21.17l-7.55,0l10.75,28.81a12.86,12.86 0 0 1 0.82,4.51a3.73,3.73 0 0 1 -3.73,3.74l-8.69,0l0,5.93l10.08,0a9,9 0 0 0 9,-9l0,-0.84a12.77,12.77 0 0 1 0.75,-4.33l10.25,-28.83l-7.31,0.01z" class="cls-1"/>
                    <path stroke="null" id="svg_29" d="m365.55475,586.60973l19.6,0a24.94,24.94 0 0 1 24.94,24.94l-19.6,0a25,25 0 0 1 -24.94,-24.94" class="cls-2"/>
                    <path stroke="null" id="svg_30" d="m429.90475,647.68973l0,0a17.54,17.54 0 0 0 17.55,-17.55l-17.55,0l0,17.55z" class="cls-3"/>
                    <path stroke="null" id="svg_31" d="m433.04475,596.52973a3.66,3.66 0 0 1 -3.49,-2.7a9.91,9.91 0 0 0 -19.45,2.7l0,13.79a19.83,19.83 0 0 0 19.8,19.83l0,-26.93a3.64,3.64 0 0 1 3.65,-3.61l13.9,0l0,-3.08l-14.41,0z" class="cls-4"/>
                </g>
            </g>
        </g>
    </g>
</svg>